<svg width="651" height="434" viewBox="0 0 651 434" fill="none" xmlns="http://www.w3.org/2000/svg">
<path d="M426.27 365.256L310.192 323.937V323.353H308.552H116.749H116.7L0 365.256H0.335764V376.43H426.606V365.256H426.27Z" fill="#E6E6E6"/>
<path d="M507.538 434C586.77 434 651 428.767 651 422.312C651 415.856 586.77 410.623 507.538 410.623C428.307 410.623 364.077 415.856 364.077 422.312C364.077 428.767 428.307 434 507.538 434Z" fill="#E6E6E6"/>
<path d="M434.031 211.705L426.842 218.444C426.842 218.444 407.361 234.32 416.403 240.144C425.446 245.968 435.527 222.617 435.527 222.617L439.412 216.592L434.031 211.705Z" fill="#9F616A"/>
<path d="M475.702 95.8657L465.542 98.2549C465.542 98.2549 463.151 108.409 463.749 117.966C464.347 127.522 461.41 145.259 461.41 145.259L454.52 161.274L425.672 215.819L443.604 223.611L475.702 160.971L478.69 120.952L475.702 95.8657Z" fill="#E6E6E6"/>
<path d="M490.808 67.4943C508.376 67.4943 522.618 52.3852 522.618 33.7471C522.618 15.1091 508.376 0 490.808 0C473.24 0 458.998 15.1091 458.998 33.7471C458.998 52.3852 473.24 67.4943 490.808 67.4943Z" fill="#2F2E41"/>
<path d="M519.032 84.8158C528.274 84.8158 535.766 77.3281 535.766 68.0916C535.766 58.855 528.274 51.3673 519.032 51.3673C509.79 51.3673 502.297 58.855 502.297 68.0916C502.297 77.3281 509.79 84.8158 519.032 84.8158Z" fill="#2F2E41"/>
<path d="M507.378 45.693L516.342 68.9875L493.632 78.5444L491.638 74.0275L484.667 58.2363L507.378 45.693Z" fill="#9F616A"/>
<path d="M537.858 173.514L546.225 212.935L557.58 301.335L549.213 381.97C549.213 381.97 524.112 390.332 514.549 374.802L525.905 308.503L503.194 230.257L499.608 307.308L505.585 374.205C505.585 374.205 487.057 384.956 472.116 374.205L461.956 241.606C461.956 241.606 454.187 183.668 472.116 164.555L537.858 173.514Z" fill="#2F2E41"/>
<path d="M489.448 60.924C500.505 60.924 509.469 51.9655 509.469 40.9146C509.469 29.8638 500.505 20.9053 489.448 20.9053C478.39 20.9053 469.427 29.8638 469.427 40.9146C469.427 51.9655 478.39 60.924 489.448 60.924Z" fill="#9F616A"/>
<path d="M489.448 79.7388L491.406 73.5026C491.406 73.5026 509.443 70.5327 514.686 64.6831L524.112 74.3631C524.112 74.3631 549.811 82.7253 553.397 86.309C556.983 89.8928 539.053 145.441 539.053 145.441C539.053 145.441 543.237 154.998 536.065 159.179C536.065 159.179 546.823 175.306 538.455 177.098C530.088 178.89 469.725 166.346 469.725 166.346C469.725 166.346 465.542 159.179 475.104 156.192C475.104 156.192 471.518 147.83 475.702 144.844C479.886 141.857 476.3 125.133 476.3 125.133C476.3 125.133 463.749 100.047 465.542 98.2549C467.335 96.4631 489.448 79.7388 489.448 79.7388Z" fill="#E6E6E6"/>
<path d="M548.018 226.076L547.42 230.854C547.42 230.854 548.018 259.524 537.26 258.33C526.502 257.135 533.076 229.062 533.076 229.062L534.869 222.492L548.018 226.076Z" fill="#9F616A"/>
<path d="M534.87 376.594C534.87 376.594 532.479 400.486 536.662 402.278C540.846 404.07 568.936 419.002 560.569 425.572C552.201 432.142 524.112 414.821 521.124 417.807C518.135 420.794 508.573 418.405 507.975 413.029C507.378 407.653 508.573 398.097 513.354 392.124C518.135 386.151 518.135 374.205 518.135 374.205L534.87 376.594Z" fill="#2F2E41"/>
<path d="M500.803 367.635L504.987 387.345C504.987 387.345 513.952 407.056 506.182 411.237C498.413 415.418 497.217 416.016 496.62 418.405C496.022 420.794 479.885 433.337 475.104 423.78C470.323 414.224 487.655 400.486 487.655 400.486L490.643 393.916L487.655 370.621L500.803 367.635Z" fill="#2F2E41"/>
<path d="M473.083 38.72C485.667 30.3278 489.429 28.3217 503.853 31.5633L504.718 10.5327L467.444 18.3472L473.083 38.72Z" fill="#2F2E41"/>
<path d="M548.018 86.9064L553.994 86.3091C553.994 86.3091 559.971 101.839 559.971 109.604V160.971L550.408 228.465L531.881 225.479L542.041 165.152L539.053 128.717L548.018 86.9064Z" fill="#E6E6E6"/>
<path d="M613.575 182.313H603.439V419.974H613.575V182.313Z" fill="#3F3D56"/>
<path d="M636.576 116.079H580.439V190.884H636.576V116.079Z" fill="#3F3D56"/>
<path d="M627.999 162.053C627.636 162.061 627.284 162.179 626.991 162.393L623.796 136.319C623.665 135.249 623.147 134.265 622.34 133.551C621.533 132.837 620.492 132.443 619.414 132.443H597.6C596.522 132.443 595.482 132.837 594.675 133.551C593.867 134.265 593.349 135.249 593.218 136.319L590.024 162.393C589.73 162.179 589.378 162.061 589.015 162.053C587.293 162.053 585.896 164.844 585.896 168.287C585.896 171.73 587.293 174.521 589.015 174.521C590.324 174.521 591.442 172.908 591.905 170.625H625.11C625.572 172.908 626.691 174.521 627.999 174.521C629.722 174.521 631.118 171.73 631.118 168.287C631.118 164.844 629.722 162.053 627.999 162.053ZM598.371 163.612C597.6 163.612 596.847 163.383 596.206 162.955C595.564 162.527 595.065 161.918 594.77 161.206C594.475 160.495 594.397 159.711 594.548 158.955C594.698 158.2 595.07 157.505 595.615 156.961C596.16 156.416 596.855 156.045 597.611 155.894C598.367 155.744 599.151 155.821 599.863 156.116C600.576 156.411 601.184 156.91 601.613 157.551C602.041 158.192 602.27 158.945 602.27 159.715C602.27 160.227 602.169 160.734 601.973 161.206C601.777 161.679 601.49 162.109 601.128 162.47C600.766 162.832 600.336 163.119 599.863 163.315C599.39 163.511 598.883 163.612 598.371 163.612ZM617.864 163.612C617.092 163.612 616.339 163.383 615.698 162.955C615.057 162.527 614.557 161.918 614.262 161.206C613.967 160.495 613.89 159.711 614.04 158.955C614.19 158.2 614.562 157.505 615.107 156.961C615.652 156.416 616.347 156.045 617.103 155.894C617.859 155.744 618.643 155.821 619.355 156.116C620.068 156.411 620.677 156.91 621.105 157.551C621.533 158.192 621.762 158.945 621.762 159.715C621.762 160.227 621.661 160.734 621.465 161.206C621.269 161.679 620.982 162.109 620.62 162.47C620.258 162.832 619.828 163.119 619.355 163.315C618.882 163.511 618.375 163.612 617.864 163.612ZM622.542 148.727C622.542 149.044 622.479 149.358 622.358 149.652C622.236 149.945 622.058 150.212 621.833 150.436C621.609 150.661 621.342 150.839 621.048 150.96C620.755 151.082 620.44 151.144 620.123 151.144H596.892C596.574 151.144 596.26 151.082 595.966 150.96C595.673 150.839 595.406 150.661 595.181 150.436C594.957 150.212 594.779 149.945 594.657 149.652C594.536 149.358 594.473 149.044 594.473 148.727V141.094C594.473 140.777 594.536 140.462 594.657 140.169C594.779 139.876 594.957 139.609 595.181 139.385C595.406 139.16 595.673 138.982 595.966 138.861C596.26 138.739 596.574 138.677 596.892 138.677H620.123C620.44 138.677 620.755 138.739 621.048 138.861C621.342 138.982 621.609 139.16 621.833 139.385C622.058 139.609 622.236 139.876 622.358 140.169C622.479 140.462 622.542 140.777 622.542 141.094V148.727Z" fill="#004AAD"/>
<path d="M417.188 208.632L419.463 213.05C419.484 213.091 419.488 213.138 419.474 213.182C419.46 213.226 419.429 213.262 419.389 213.283L419.279 213.34L431.13 236.354C431.458 236.991 431.52 237.732 431.301 238.414C431.082 239.096 430.602 239.664 429.964 239.991L415.575 247.392C415.26 247.555 414.915 247.653 414.562 247.682C414.208 247.712 413.852 247.671 413.514 247.563C413.176 247.454 412.863 247.281 412.592 247.051C412.322 246.822 412.099 246.542 411.937 246.226L400.501 224.019L400.421 224.06C400.392 224.075 400.359 224.078 400.328 224.068C400.297 224.058 400.271 224.037 400.256 224.008L398.962 221.493C398.954 221.479 398.95 221.464 398.948 221.448C398.947 221.431 398.949 221.415 398.954 221.4C398.959 221.385 398.967 221.37 398.977 221.358C398.987 221.346 399 221.336 399.014 221.328L399.094 221.288L398.606 220.341L398.526 220.382C398.496 220.397 398.461 220.4 398.428 220.389C398.396 220.379 398.369 220.356 398.353 220.326L397.076 217.846C397.061 217.816 397.058 217.781 397.068 217.748C397.079 217.716 397.101 217.689 397.132 217.674L397.212 217.632L396.546 216.34L396.464 216.382C396.451 216.388 396.437 216.393 396.422 216.394C396.407 216.395 396.392 216.393 396.378 216.389C396.364 216.384 396.35 216.377 396.339 216.367C396.328 216.358 396.318 216.346 396.312 216.333L395.615 214.979C395.601 214.952 395.598 214.921 395.607 214.892C395.616 214.864 395.636 214.84 395.663 214.826L395.745 214.784L394.333 212.043C394.006 211.407 393.944 210.666 394.163 209.984C394.382 209.302 394.862 208.735 395.499 208.407L409.888 201.006C410.525 200.679 411.267 200.617 411.949 200.836C412.632 201.054 413.199 201.534 413.527 202.171L416.845 208.614L416.955 208.557C416.996 208.536 417.043 208.532 417.087 208.546C417.131 208.561 417.167 208.591 417.188 208.632Z" fill="#3F3D56"/>
<path d="M412.621 203.238L430.082 237.145C430.29 237.549 430.329 238.019 430.19 238.452C430.051 238.884 429.746 239.244 429.342 239.452L415.568 246.537C415.368 246.64 415.15 246.703 414.925 246.722C414.701 246.74 414.475 246.715 414.26 246.646C414.046 246.577 413.847 246.467 413.675 246.322C413.504 246.176 413.362 245.998 413.26 245.798L395.799 211.891C395.696 211.69 395.633 211.472 395.614 211.248C395.596 211.024 395.622 210.798 395.69 210.584C395.759 210.369 395.869 210.171 396.015 209.999C396.16 209.827 396.338 209.686 396.538 209.583L398.6 208.523L398.736 208.787C398.907 209.12 399.204 209.371 399.561 209.485C399.917 209.599 400.304 209.567 400.637 209.396L407.642 205.793C407.975 205.622 408.227 205.325 408.341 204.969C408.455 204.612 408.423 204.225 408.252 203.893L408.115 203.628L410.312 202.498C410.512 202.395 410.731 202.333 410.955 202.314C411.18 202.295 411.406 202.321 411.62 202.39C411.835 202.459 412.033 202.569 412.205 202.714C412.377 202.86 412.518 203.038 412.621 203.238Z" fill="#004AAD"/>
<path d="M287.279 287.576C285.904 287.606 284.572 288.054 283.46 288.862L271.363 190.131C270.867 186.082 268.906 182.355 265.849 179.651C262.793 176.948 258.852 175.456 254.77 175.456H172.171C168.089 175.456 164.149 176.948 161.092 179.651C158.036 182.355 156.075 186.082 155.578 190.131L143.482 288.862C142.37 288.054 141.037 287.606 139.663 287.576C133.141 287.576 127.854 298.145 127.854 311.181C127.854 324.217 133.141 334.785 139.663 334.785C144.617 334.785 148.853 328.679 150.606 320.033H276.336C278.089 328.679 282.324 334.785 287.279 334.785C293.801 334.785 299.088 324.217 299.088 311.181C299.088 298.144 293.801 287.576 287.279 287.576ZM175.091 293.478C172.171 293.478 169.317 292.612 166.889 290.991C164.462 289.37 162.57 287.066 161.453 284.37C160.335 281.675 160.043 278.708 160.613 275.847C161.182 272.985 162.588 270.356 164.653 268.293C166.717 266.23 169.347 264.825 172.211 264.256C175.074 263.686 178.042 263.978 180.74 265.095C183.437 266.212 185.742 268.103 187.364 270.529C188.986 272.955 189.852 275.807 189.852 278.725C189.852 280.662 189.47 282.581 188.729 284.37C187.987 286.16 186.899 287.787 185.529 289.157C184.158 290.527 182.531 291.613 180.74 292.355C178.949 293.096 177.029 293.478 175.091 293.478ZM248.899 293.478C245.979 293.478 243.125 292.612 240.697 290.991C238.27 289.37 236.378 287.066 235.261 284.37C234.143 281.675 233.851 278.708 234.421 275.847C234.99 272.985 236.396 270.356 238.46 268.293C240.525 266.23 243.155 264.825 246.019 264.256C248.882 263.686 251.85 263.978 254.548 265.095C257.245 266.212 259.55 268.103 261.172 270.529C262.794 272.955 263.66 275.807 263.66 278.725C263.66 280.662 263.278 282.581 262.536 284.37C261.795 286.16 260.707 287.787 259.337 289.157C257.966 290.527 256.339 291.613 254.548 292.355C252.757 293.096 250.837 293.478 248.899 293.478ZM266.612 237.115C266.612 238.317 266.376 239.507 265.915 240.618C265.455 241.729 264.78 242.738 263.93 243.588C263.079 244.438 262.07 245.112 260.958 245.572C259.847 246.032 258.656 246.269 257.453 246.269H169.488C168.285 246.269 167.094 246.032 165.983 245.572C164.872 245.112 163.862 244.438 163.012 243.588C162.161 242.738 161.486 241.729 161.026 240.618C160.566 239.507 160.329 238.317 160.329 237.115V208.214C160.329 207.012 160.566 205.821 161.026 204.711C161.486 203.6 162.161 202.591 163.012 201.741C163.862 200.891 164.872 200.217 165.983 199.757C167.094 199.297 168.285 199.06 169.488 199.06H257.453C258.656 199.06 259.847 199.297 260.958 199.757C262.07 200.217 263.079 200.891 263.93 201.741C264.78 202.591 265.455 203.6 265.915 204.711C266.376 205.821 266.612 207.012 266.612 208.214V237.115Z" fill="#3F3D56"/>
<path d="M228.933 180.126H198.008L204.635 170.192H222.306L228.933 180.126Z" fill="#004AAD"/>
<path d="M209.721 155.896C228.868 155.896 244.39 140.383 244.39 121.248C244.39 102.112 228.868 86.5999 209.721 86.5999C190.574 86.5999 175.053 102.112 175.053 121.248C175.053 140.383 190.574 155.896 209.721 155.896Z" fill="#004AAD"/>
<path d="M206.418 135.874L196.041 122.54L202.075 117.849L206.989 124.163L223.586 106.652L229.137 111.907L206.418 135.874Z" fill="white"/>
<path d="M216.629 324.343H209.641V328.533H216.629V324.343Z" fill="white"/>
<path d="M216.629 364.615H209.641V355.595H216.629V364.615ZM216.629 346.574H209.641V337.554H216.629V346.574Z" fill="white"/>
<path d="M216.629 373.637H209.641V377.827H216.629V373.637Z" fill="white"/>
</svg>
